<mxfile host="app.diagrams.net" modified="2021-08-21T18:41:49.234Z" agent="5.0 (Windows NT 10.0; Win64; x64) AppleWebKit/537.36 (KHTML, like Gecko) Chrome/92.0.4515.159 Safari/537.36" etag="4GTTHAY-BXHQVPrIHjez" version="14.9.7" type="github">
  <diagram id="GUbtLwhzrPBjvwKt-0KX" name="Page-1">
    <mxGraphModel dx="1038" dy="579" grid="1" gridSize="10" guides="1" tooltips="1" connect="1" arrows="1" fold="1" page="1" pageScale="1" pageWidth="827" pageHeight="1169" math="0" shadow="0">
      <root>
        <mxCell id="0" />
        <mxCell id="1" parent="0" />
        <mxCell id="EqKxbtSuQooHx_TppK0c-1" value="&lt;span style=&quot;color: rgba(0 , 0 , 0 , 0) ; font-family: monospace ; font-size: 0px&quot;&gt;%3CmxGraphModel%3E%3Croot%3E%3CmxCell%20id%3D%220%22%2F%3E%3CmxCell%20id%3D%221%22%20parent%3D%220%22%2F%3E%3CmxCell%20id%3D%222%22%20value%3D%22Include%22%20style%3D%22endArrow%3Dopen%3BendSize%3D12%3Bdashed%3D1%3Bhtml%3D1%3BentryX%3D1%3BentryY%3D0.5%3BentryDx%3D0%3BentryDy%3D0%3BexitX%3D0%3BexitY%3D0.5%3BexitDx%3D0%3BexitDy%3D0%3B%22%20edge%3D%221%22%20parent%3D%221%22%3E%3CmxGeometry%20x%3D%22-0.0415%22%20y%3D%22-2%22%20width%3D%22160%22%20relative%3D%221%22%20as%3D%22geometry%22%3E%3CmxPoint%20x%3D%22490%22%20y%3D%22235%22%20as%3D%22sourcePoint%22%2F%3E%3CmxPoint%20x%3D%22430%22%20y%3D%22300%22%20as%3D%22targetPoint%22%2F%3E%3CmxPoint%20as%3D%22offset%22%2F%3E%3C%2FmxGeometry%3E%3C%2FmxCell%3E%3C%2Froot%3E%3C%2FmxGraphModel%3E&lt;/span&gt;" style="rounded=0;whiteSpace=wrap;html=1;" parent="1" vertex="1">
          <mxGeometry x="300" y="60" width="340" height="510" as="geometry" />
        </mxCell>
        <mxCell id="EqKxbtSuQooHx_TppK0c-2" value="Admin" style="shape=umlActor;verticalLabelPosition=bottom;verticalAlign=top;html=1;outlineConnect=0;" parent="1" vertex="1">
          <mxGeometry x="210" y="270" width="30" height="60" as="geometry" />
        </mxCell>
        <mxCell id="EqKxbtSuQooHx_TppK0c-3" value="Đăng nhập" style="ellipse;whiteSpace=wrap;html=1;" parent="1" vertex="1">
          <mxGeometry x="330" y="265" width="100" height="70" as="geometry" />
        </mxCell>
        <mxCell id="EqKxbtSuQooHx_TppK0c-5" value="" style="endArrow=classic;html=1;" parent="1" target="EqKxbtSuQooHx_TppK0c-3" edge="1">
          <mxGeometry width="50" height="50" relative="1" as="geometry">
            <mxPoint x="260" y="300" as="sourcePoint" />
            <mxPoint x="250" y="285" as="targetPoint" />
          </mxGeometry>
        </mxCell>
        <mxCell id="EqKxbtSuQooHx_TppK0c-6" value="Phản hồi bình luận của khách hàng" style="ellipse;whiteSpace=wrap;html=1;" parent="1" vertex="1">
          <mxGeometry x="510" y="80" width="100" height="70" as="geometry" />
        </mxCell>
        <mxCell id="EqKxbtSuQooHx_TppK0c-7" value="Include" style="endArrow=open;endSize=12;dashed=1;html=1;entryX=1;entryY=0;entryDx=0;entryDy=0;exitX=0;exitY=0.5;exitDx=0;exitDy=0;" parent="1" source="EqKxbtSuQooHx_TppK0c-6" target="EqKxbtSuQooHx_TppK0c-3" edge="1">
          <mxGeometry x="-0.0415" y="-2" width="160" relative="1" as="geometry">
            <mxPoint x="440" y="320" as="sourcePoint" />
            <mxPoint x="600" y="320" as="targetPoint" />
            <mxPoint as="offset" />
          </mxGeometry>
        </mxCell>
        <mxCell id="EqKxbtSuQooHx_TppK0c-8" value="Giao tiếp với khách hàng" style="ellipse;whiteSpace=wrap;html=1;" parent="1" vertex="1">
          <mxGeometry x="510" y="160" width="100" height="70" as="geometry" />
        </mxCell>
        <mxCell id="EqKxbtSuQooHx_TppK0c-9" value="Include" style="endArrow=open;endSize=12;dashed=1;html=1;exitX=0;exitY=0.5;exitDx=0;exitDy=0;entryX=0.96;entryY=0.28;entryDx=0;entryDy=0;entryPerimeter=0;" parent="1" source="EqKxbtSuQooHx_TppK0c-8" target="EqKxbtSuQooHx_TppK0c-3" edge="1">
          <mxGeometry x="-0.0415" y="-2" width="160" relative="1" as="geometry">
            <mxPoint x="480" y="350" as="sourcePoint" />
            <mxPoint x="420" y="285" as="targetPoint" />
            <mxPoint as="offset" />
          </mxGeometry>
        </mxCell>
        <mxCell id="EqKxbtSuQooHx_TppK0c-10" value="Điều chỉnh &lt;br&gt;thông tin các Tour trên hệ thống" style="ellipse;whiteSpace=wrap;html=1;" parent="1" vertex="1">
          <mxGeometry x="510" y="240" width="100" height="70" as="geometry" />
        </mxCell>
        <mxCell id="EqKxbtSuQooHx_TppK0c-11" value="Include" style="endArrow=open;endSize=12;dashed=1;html=1;exitX=0;exitY=0.5;exitDx=0;exitDy=0;entryX=1;entryY=0.5;entryDx=0;entryDy=0;" parent="1" source="EqKxbtSuQooHx_TppK0c-10" target="EqKxbtSuQooHx_TppK0c-3" edge="1">
          <mxGeometry x="-0.0415" y="-2" width="160" relative="1" as="geometry">
            <mxPoint x="498.8" y="300" as="sourcePoint" />
            <mxPoint x="414.00000000000006" y="377.99" as="targetPoint" />
            <mxPoint as="offset" />
          </mxGeometry>
        </mxCell>
        <mxCell id="EqKxbtSuQooHx_TppK0c-12" value="Cập nhật thêm các Tour mới" style="ellipse;whiteSpace=wrap;html=1;" parent="1" vertex="1">
          <mxGeometry x="510" y="320" width="100" height="70" as="geometry" />
        </mxCell>
        <mxCell id="EqKxbtSuQooHx_TppK0c-13" value="Include" style="endArrow=open;endSize=12;dashed=1;html=1;exitX=0;exitY=0.5;exitDx=0;exitDy=0;" parent="1" source="EqKxbtSuQooHx_TppK0c-12" target="EqKxbtSuQooHx_TppK0c-3" edge="1">
          <mxGeometry x="-0.0415" y="-2" width="160" relative="1" as="geometry">
            <mxPoint x="470" y="365" as="sourcePoint" />
            <mxPoint x="390" y="390" as="targetPoint" />
            <mxPoint as="offset" />
          </mxGeometry>
        </mxCell>
        <mxCell id="EqKxbtSuQooHx_TppK0c-14" value="Thêm các bài &lt;br&gt;báo về du lịch" style="ellipse;whiteSpace=wrap;html=1;" parent="1" vertex="1">
          <mxGeometry x="510" y="400" width="100" height="70" as="geometry" />
        </mxCell>
        <mxCell id="EqKxbtSuQooHx_TppK0c-15" value="Include" style="endArrow=open;endSize=12;dashed=1;html=1;exitX=0;exitY=0.5;exitDx=0;exitDy=0;" parent="1" source="EqKxbtSuQooHx_TppK0c-14" target="EqKxbtSuQooHx_TppK0c-3" edge="1">
          <mxGeometry x="-0.0415" y="-2" width="160" relative="1" as="geometry">
            <mxPoint x="501.21" y="426.9" as="sourcePoint" />
            <mxPoint x="414.0014404596763" y="390.0040709637092" as="targetPoint" />
            <mxPoint as="offset" />
          </mxGeometry>
        </mxCell>
        <mxCell id="EqKxbtSuQooHx_TppK0c-16" value="Chỉnh sửa &lt;br&gt;các bài báo về &lt;br&gt;du lịch" style="ellipse;whiteSpace=wrap;html=1;" parent="1" vertex="1">
          <mxGeometry x="510" y="480" width="100" height="70" as="geometry" />
        </mxCell>
        <mxCell id="EqKxbtSuQooHx_TppK0c-17" value="Include" style="endArrow=open;endSize=12;dashed=1;html=1;exitX=0;exitY=0.5;exitDx=0;exitDy=0;" parent="1" source="EqKxbtSuQooHx_TppK0c-16" target="EqKxbtSuQooHx_TppK0c-3" edge="1">
          <mxGeometry x="-0.0415" y="-2" width="160" relative="1" as="geometry">
            <mxPoint x="502.05" y="505.98" as="sourcePoint" />
            <mxPoint x="399.9972641537884" y="400.00215892893425" as="targetPoint" />
            <mxPoint as="offset" />
          </mxGeometry>
        </mxCell>
        <mxCell id="EqKxbtSuQooHx_TppK0c-18" value="Use Case Admin" style="text;align=center;fontStyle=1;verticalAlign=middle;spacingLeft=3;spacingRight=3;strokeColor=none;rotatable=0;points=[[0,0.5],[1,0.5]];portConstraint=eastwest;" parent="1" vertex="1">
          <mxGeometry x="374" y="20" width="80" height="26" as="geometry" />
        </mxCell>
      </root>
    </mxGraphModel>
  </diagram>
</mxfile>
